<mxfile host="app.diagrams.net" modified="2020-12-14T02:01:55.047Z" agent="5.0 (Macintosh; Intel Mac OS X 10_15_7) AppleWebKit/537.36 (KHTML, like Gecko) Chrome/87.0.4280.88 Safari/537.36" etag="Ls39_5YRXA251kTa5dVF" version="14.0.0" type="github">
  <diagram id="6g_NB_qkvzhOsYnh3NiX" name="Page-1">
    <mxGraphModel dx="1258" dy="843" grid="1" gridSize="10" guides="1" tooltips="1" connect="1" arrows="1" fold="1" page="1" pageScale="1" pageWidth="827" pageHeight="1169" math="0" shadow="0">
      <root>
        <mxCell id="0" />
        <mxCell id="1" parent="0" />
        <mxCell id="ek9BJI5t3MrHNnFUKKP--3" value="" style="edgeStyle=orthogonalEdgeStyle;rounded=0;orthogonalLoop=1;jettySize=auto;html=1;" edge="1" parent="1" source="ek9BJI5t3MrHNnFUKKP--1" target="ek9BJI5t3MrHNnFUKKP--2">
          <mxGeometry relative="1" as="geometry" />
        </mxCell>
        <mxCell id="ek9BJI5t3MrHNnFUKKP--4" value="&lt;b&gt;&lt;font style=&quot;font-size: 18px&quot;&gt;rpc&lt;/font&gt;&lt;/b&gt;" style="edgeLabel;html=1;align=center;verticalAlign=middle;resizable=0;points=[];" vertex="1" connectable="0" parent="ek9BJI5t3MrHNnFUKKP--3">
          <mxGeometry x="-0.2" relative="1" as="geometry">
            <mxPoint as="offset" />
          </mxGeometry>
        </mxCell>
        <mxCell id="ek9BJI5t3MrHNnFUKKP--1" value="风控引擎" style="rounded=0;whiteSpace=wrap;html=1;fillColor=#f5f5f5;strokeColor=#666666;fontColor=#333333;" vertex="1" parent="1">
          <mxGeometry x="90" y="220" width="120" height="60" as="geometry" />
        </mxCell>
        <mxCell id="ek9BJI5t3MrHNnFUKKP--2" value="Feature" style="rounded=0;whiteSpace=wrap;html=1;fillColor=#d5e8d4;strokeColor=#82b366;" vertex="1" parent="1">
          <mxGeometry x="90" y="360" width="120" height="60" as="geometry" />
        </mxCell>
        <mxCell id="ek9BJI5t3MrHNnFUKKP--5" value="" style="shape=flexArrow;endArrow=classic;html=1;" edge="1" parent="1">
          <mxGeometry width="50" height="50" relative="1" as="geometry">
            <mxPoint x="290" y="320" as="sourcePoint" />
            <mxPoint x="380" y="320" as="targetPoint" />
          </mxGeometry>
        </mxCell>
        <mxCell id="ek9BJI5t3MrHNnFUKKP--8" value="近端集成" style="edgeLabel;html=1;align=center;verticalAlign=middle;resizable=0;points=[];" vertex="1" connectable="0" parent="ek9BJI5t3MrHNnFUKKP--5">
          <mxGeometry x="-0.1111" y="1" relative="1" as="geometry">
            <mxPoint as="offset" />
          </mxGeometry>
        </mxCell>
        <mxCell id="ek9BJI5t3MrHNnFUKKP--9" value="" style="group" vertex="1" connectable="0" parent="1">
          <mxGeometry x="420" y="280" width="170" height="90" as="geometry" />
        </mxCell>
        <mxCell id="ek9BJI5t3MrHNnFUKKP--6" value="风控引擎" style="rounded=0;whiteSpace=wrap;html=1;fillColor=#f5f5f5;strokeColor=#666666;fontColor=#333333;" vertex="1" parent="ek9BJI5t3MrHNnFUKKP--9">
          <mxGeometry width="170" height="90" as="geometry" />
        </mxCell>
        <mxCell id="ek9BJI5t3MrHNnFUKKP--7" value="Feature" style="rounded=0;whiteSpace=wrap;html=1;fillColor=#d5e8d4;strokeColor=#82b366;" vertex="1" parent="ek9BJI5t3MrHNnFUKKP--9">
          <mxGeometry x="40" y="60" width="90" height="20" as="geometry" />
        </mxCell>
      </root>
    </mxGraphModel>
  </diagram>
</mxfile>
